# xmcd
#
# Track frame offsets: 
#        150
#        10095
#        21169
#        33296
#        43497
#        54988
#        66203
#        78547
#        96352
#        109904
#        119501
#        135946
#        149127
#        166454
#        180637
#        195965
#        209717
#        230599
#        242456
#        254238
#
# Disc length: 3566 seconds
#
# Revision: 0
# Processed by: cddbd v1.5.2PL0 Copyright (c) Steve Scherf et al.
# Submitted via: ExactAudioCopy v1.0b1
#
DISCID=270dec14
DTITLE=Various Artist - Heart of Texas Records 30th Anniversary Collection [D
DTITLE=isc 3]
DYEAR=2019
DGENRE=Country
TTITLE0=Hank Thompson and Vince Gill - A Six Pack To Go
TTITLE1=Amber Digby and Randy Lindley - We Loved It Away
TTITLE2=Landon Dodd - Same Ole Town
TTITLE3=Kimberly Murray - The Box That It Came In
TTITLE4=Tommy Hooker - Pride
TTITLE5=Diane McCall - I Got Mexico
TTITLE6=Justin Trevino - When She Does Me Right
TTITLE7=Kaye Tolson - Someday Soon
TTITLE8=Tony Booth - Its All Your Fault
TTITLE9=Georgette Jones - Your Good Girls Gonna Go Bad
TTITLE10=Curtis Potter - A Fool Such As I
TTITLE11=Darrell McCall - She'll Unwine Me
TTITLE12=Chuck Hancock - Step Aside
TTITLE13=Norma Jean - Making Plans
TTITLE14=Rance Norton - Texas Honkytonk
TTITLE15=Ferlin Husky - I'll Babysit With You
TTITLE16=Johnny Bush and Randy Rogers - All The Rage In Paris
TTITLE17=Frankie Miller - Too Hot To Handle
TTITLE18=Dottsy - Old Love Turned Memory
TTITLE19=George Hamilton IV - Falling Leaves
EXTD=
EXTT0=
EXTT1=
EXTT2=
EXTT3=
EXTT4=
EXTT5=
EXTT6=
EXTT7=
EXTT8=
EXTT9=
EXTT10=
EXTT11=
EXTT12=
EXTT13=
EXTT14=
EXTT15=
EXTT16=
EXTT17=
EXTT18=
EXTT19=
PLAYORDER=
